<svg xmlns="http://www.w3.org/2000/svg" viewBox="0 0 288.66 204.51"><defs><style>.cls-1{fill:#fff;}</style></defs><g id="Layer_2" data-name="Layer 2"><g id="Layer_1-2" data-name="Layer 1"><path d="M0,110.21c1.41-5.68,3.35-11.06,7.41-15.53,6-6.61,13.28-10.37,22.24-10.37q114.69-.06,229.38,0c16.05,0,29.53,13.42,29.58,29.38.08,28,0,56,0,84,0,3.56-1.71,6-4.48,6.63s-5.72-.51-6.8-3.14a13.19,13.19,0,0,1-.76-4.65c-.08-5.15,0-10.31,0-15.69H12.09c0,4.17,0,8.37,0,12.57,0,1.69.06,3.39-.08,5.06-.26,3.17-1.89,5.24-4.41,5.84-2.86.69-5.06-.27-6.92-3-.21-.3-.45-.57-.67-.85Zm276.42,46.32H12.27v11.65H276.42Z"/><path d="M230.05,72.31c4.84-2.7,4.84-6.18,3.59-10.24C232.26,57.6,231.43,53,230,48.5a17.23,17.23,0,0,0-16.51-12.18c-13.05-.1-26.11,0-39.17,0-9.76,0-17.65,8.16-17.77,16.82-.06,4.13-.07,8.26-.17,12.39-.07,3,1.44,5.08,4.39,6.77H127.63c5.23-2.38,4.66-6.56,4.58-10.51s.21-8-.62-11.77c-1.81-8.26-8.82-13.61-17.37-13.67-12.87-.1-25.74-.08-38.61,0A17.53,17.53,0,0,0,58.28,49.36c-1.5,5.11-2.68,10.33-3.92,15.52-.77,3.23.91,5.37,3.92,7.26-1.09.1-1.75.21-2.41.21-8.18,0-16.35,0-24.52,0-4.82,0-7.27-2.25-7.31-7-.1-11.83-.36-23.68.07-35.5C24.76,12.18,37.28.34,55,0,60.28,0,65.54,0,70.8,0q80.75,0,161.49,0c7.54,0,14.47,1.55,20.52,6.37a29.88,29.88,0,0,1,11.83,24.41c0,11.36.05,22.73,0,34.1,0,4.61-1.94,7.25-6,7.35C249.38,72.47,240.12,72.31,230.05,72.31Z"/><path class="cls-1" d="M276.42,156.53v11.65H12.27V156.53Z"/></g></g></svg>