<svg xmlns="http://www.w3.org/2000/svg" viewBox="0 0 206.49 225.63"><g id="Layer_2" data-name="Layer 2"><g id="Layer_1-2" data-name="Layer 1"><path d="M43.75,225.63H37.58c-.53-.2-1-.44-1.59-.6-6.19-1.78-9.08-5.61-9.09-12V199.92a69.57,69.57,0,0,0-8.46.06c-5,.62-8.87-2.27-9.42-8.37-.63-6.94-1.22-13.9-1.3-20.87-.26-23.19-.31-46.39-.39-69.58a2.67,2.67,0,0,0-1.52-2.77c-3.48-2-5.66-5-5.72-9C0,81.42,0,73.49.12,65.57c.09-4.25,2.28-7.83,6.22-9,3.67-1.14,4.19-3.38,4.31-6.38a10,10,0,0,1,.08-1.1c1.47-8.14,2.8-16.3,4.48-24.39A18.69,18.69,0,0,1,26.89,10.73,94.62,94.62,0,0,1,39.27,6.29C55.38,2,71.91.66,88.48.17a316.81,316.81,0,0,1,59.26,3.41,158.17,158.17,0,0,1,25.82,6.14C183.39,13,190,19.13,191.82,29.64c1.35,7.71,2.69,15.43,3.89,23.16.25,1.58.6,2.41,2.32,2.81a10.42,10.42,0,0,1,8.3,9.86c.22,8,.18,16,0,24-.08,4.25-2.46,7.3-6.19,9.18a2.5,2.5,0,0,0-1.66,2.63q0,45.71-.11,91.4c0,4.4-1.48,6.3-5.9,7-2.79.42-5.65.33-8.69.49,0,4.6,0,9.14,0,13.67a10.28,10.28,0,0,1-5.52,9.59,48,48,0,0,1-5.43,2.25h-5.73c-.61-.21-1.21-.44-1.83-.62-5.93-1.72-9.08-5.74-9.1-11.65,0-3.23,0-6.46,0-9.68v-3.62H54.31c0,4.75-.07,9.36,0,14a9.84,9.84,0,0,1-5.08,9.12A49.75,49.75,0,0,1,43.75,225.63Zm128-107.71V45.32H33v72.6Zm-18-96.86H51.07V36.25H153.79Zm-15,146.13a14.56,14.56,0,1,0,15-14.28A14.58,14.58,0,0,0,138.79,167.19Zm-100.95.36A14.55,14.55,0,1,0,52.26,152.9,14.56,14.56,0,0,0,37.84,167.55Z"/></g></g></svg>