<svg xmlns="http://www.w3.org/2000/svg" viewBox="0 0 315.01 207.87"><g id="Layer_2" data-name="Layer 2"><g id="Layer_1-2" data-name="Layer 1"><path d="M315,76.85l-1.79,5.81c-1.15,3.71-3.07,5.22-6.91,5.24-8.2,0-16.41,0-24.61,0-1,0-1.93.1-3.58.2A13.39,13.39,0,0,0,280,89.53c6,2.81,9,7.7,9,14.18q.12,47.83,0,95.68c0,5.62-3,8.41-8.67,8.44q-16.31.07-32.61,0c-6,0-8.82-2.87-8.85-8.89,0-9.74,0-19.48,0-29.22v-3.48H76.09v3.26q0,14.31,0,28.61c0,7-2.66,9.73-9.57,9.73H35.45c-6.78,0-9.53-2.71-9.53-9.47,0-30.86,0-61.73,0-92.6,0-7.57,2.48-13.38,9.72-16.56.27-.11.52-.29.61-1.17-.92-.05-1.84-.12-2.77-.13-8.1,0-16.2,0-24.3,0-4.47,0-6.14-1.42-7.59-5.61A28.65,28.65,0,0,1,1.8,63c1-2.93,3-4.65,6.11-4.66q14.15-.06,28.3,0c3.28,0,5.34,1.72,6.24,4.87.36,1.27.8,2.52,1.4,4.41,3.36-9.27,6.49-17.94,9.64-26.62,3.06-8.46,6.07-16.94,9.21-25.37C66.45,5.54,74.24,0,85,0Q157.45,0,229.9,0c10.77,0,18.61,5.48,22.32,15.58,6.26,17.08,12.41,34.2,18.82,51.9.59-1.76,1-3,1.44-4.27,1.11-3.38,3-4.87,6.53-4.89q13.85-.08,27.69,0c3.51,0,5.42,1.57,6.47,5,.64,2,1.23,4.1,1.84,6.14ZM64.35,88.05H250.42c-.18-.64-.25-1-.39-1.38C243,67.24,236,47.83,229,28.38c-.7-2-1.82-2.06-3.45-2.06q-68.15,0-136.28,0c-2.21,0-3,.82-3.65,2.71C81.5,40.75,77.23,52.47,73,64.2,70.16,72.06,67.3,79.9,64.35,88.05Zm11.17,20.81h0c-4.82,0-9.64-.13-14.45,0-8.4.27-13.74,7.54-11.3,15.17,1.61,5,5.88,7.92,12.17,8,9.12.08,18.25.06,27.37,0a17.37,17.37,0,0,0,5.12-.78A11.35,11.35,0,0,0,102,119a11.68,11.68,0,0,0-11.46-10C85.57,108.71,80.54,108.86,75.52,108.86ZM239.15,132v0c4.41,0,8.82.09,13.22,0a20.27,20.27,0,0,0,6-.9,11.34,11.34,0,0,0,7.27-12.2,11.62,11.62,0,0,0-11.8-10c-9.73-.14-19.48-.21-29.2.08a14.72,14.72,0,0,0-7.35,2.56c-4.06,2.72-5.37,7.62-3.94,12.26,1.52,5,5.26,7.9,11,8.16C229.3,132.18,234.23,132,239.15,132Z"/></g></g></svg>