<svg xmlns="http://www.w3.org/2000/svg" viewBox="0 0 38.61 88.54"><g id="Layer_2" data-name="Layer 2"><g id="Layer_1-2" data-name="Layer 1"><path d="M30.22,0c4.43,1.88,8.15,4.37,8.38,9.82.23,5.3-3.34,9.56-8.87,10.63-5.21,1-10.91-2.12-12.55-6.9s.52-9.78,5.51-12.37C23.37.82,24,.39,24.69,0Z"/><path d="M37.05,79.55c.16,3.15-1,4.73-3.88,5.78-6,2.2-11.93,4.26-18.47,2.61-6.26-1.59-10.18-6.41-9-12.73,1.6-8.58,4.07-17,6.08-25.5a29.73,29.73,0,0,0,.94-6.47c0-3.66-1.61-5.13-5.38-5.2a21.76,21.76,0,0,0-3.78.32c-1.12.19-2.21.56-3.54.92-.09-3.16.8-5.08,4.09-6.12,5.62-1.75,11.07-3.92,17.16-2.83,6.87,1.24,11,6.09,9.92,13S28,57,26.42,63.79c-.76,3.25-1.6,6.49-2.11,9.78-.77,5,1.3,7.19,6.34,6.94C32.69,80.41,34.72,79.91,37.05,79.55Z"/></g></g></svg>