<svg xmlns="http://www.w3.org/2000/svg" viewBox="0 0 384 383.36"><defs><style>.cls-1{fill:#fff;}</style></defs><g id="Layer_2" data-name="Layer 2"><g id="Layer_1-2" data-name="Layer 1"><path d="M66.75,0c1.52.45,3,1,4.57,1.34A47.34,47.34,0,0,1,94,13.76c7,6.79,13.77,13.77,20.73,20.58a14.54,14.54,0,0,1,4.35,11.12c0,18-.09,35.92.09,53.87a9,9,0,0,0,2.34,5.78Q200,183.68,278.69,262a9.12,9.12,0,0,0,5.79,2.34q26.63.26,53.23.05a16.29,16.29,0,0,1,12.71,5.14c6,6.32,12.32,12.4,18.51,18.56a49,49,0,0,1,14.4,27.3,4.53,4.53,0,0,0,.67,1.26v14.22c-.72,2.88-1.36,5.77-2.16,8.63a59.51,59.51,0,0,1-62.11,43.62,47.36,47.36,0,0,1-30-13.84c-7.05-6.89-13.95-13.94-21-20.87-3-2.94-3.87-6.53-3.86-10.55,0-18,0-35.92.07-53.88a7.92,7.92,0,0,0-2.62-6.18Q184,199.68,105.73,121.42a8.28,8.28,0,0,0-6.55-2.64c-17.62.1-35.24,0-52.86.11a16.63,16.63,0,0,1-13-5.42c-5.67-6-11.56-11.74-17.46-17.49C7.88,88.18,2.47,79,.67,67.9A4.5,4.5,0,0,0,0,66.62V52.4a14.83,14.83,0,0,0,.71-2.1C4.33,29.68,15.65,14.7,34.44,5.68,40.07,3,46.46,1.85,52.5,0Z"/><path d="M0,366c1.19-6.84,2.33-13.68,3.59-20.5,6.41-34.6,18-67.5,33.25-99.13a439.26,439.26,0,0,1,62.9-95.67c.48-.55,1-1.09,1.22-1.36l34.39,34.33c-3.11,4.16-6.72,8.75-10.07,13.53-10.14,14.43-19.23,29.43-23.67,46.74-1.66,6.46-2.33,13-.87,19.62,2.94,13.21,14.63,21,29,19.8,13.91-1.19,26.43-6.45,38.11-13.5,10.44-6.3,20.26-13.63,30.36-20.52.71-.48,1.37-1,1.8-1.36l34.66,34.61c-8.4,6.63-16.92,13.72-25.82,20.32-45.57,33.78-95.57,58.51-150.77,72.18-14,3.47-28.39,5.4-42.62,7.92C8.33,384.31,3,381.82,0,375Z"/><path d="M384,17.22c-1.2,6.82-2.35,13.66-3.61,20.47-6.4,34.6-18,67.49-33.23,99.12a440.06,440.06,0,0,1-62.86,95.67c-.48.56-1,1.1-1.21,1.36-11.44-11.43-22.79-22.77-34.4-34.35,3-4,6.49-8.48,9.77-13.13,10.23-14.52,19.41-29.59,23.9-47,1.66-6.47,2.35-13,.91-19.62-2.91-13.25-14.47-21-28.91-19.88a77.2,77.2,0,0,0-32.82,10.66c-11.4,6.63-22.23,14.24-33.27,21.47-1.56,1-3,2.27-4.11,3.17l-34.45-34.42c2.5-2.13,5.45-4.75,8.51-7.24,47.39-38.6,100.16-67.07,159.3-83.11C333.1,6.15,349.21,3.88,365.07.69A9.74,9.74,0,0,0,366.75,0h9A15.83,15.83,0,0,1,384,8.23Z"/><path class="cls-1" d="M52.5,0c-6,1.85-12.43,3-18.06,5.68C15.65,14.7,4.33,29.68.71,50.3A14.83,14.83,0,0,1,0,52.4V0Z"/><path class="cls-1" d="M384,8.23A15.83,15.83,0,0,0,375.75,0H384Z"/><path d="M151.55,199.47l32.66,32.6c-16.14,12-32.34,24.18-52.83,28.66-.24,0-.48.14-.72.19-7.12,1.27-9.55-.95-8.06-7.94a78.65,78.65,0,0,1,4.1-13.52C132.79,224.72,141.84,211.77,151.55,199.47Z"/><path d="M232.51,183.72,200,151.24c9.32-7.55,19.3-14.77,30.4-20.16,7.12-3.45,14.77-5.79,22.19-8.63a5.12,5.12,0,0,1,1.1-.23c6.94-1,9.34,1.21,7.73,8a99.34,99.34,0,0,1-5.59,16.93C249.88,160.56,241.41,172.42,232.51,183.72Z"/></g></g></svg>