<svg xmlns="http://www.w3.org/2000/svg" viewBox="0 0 383.27 383.06"><g id="Layer_2" data-name="Layer 2"><g id="Layer_1-2" data-name="Layer 1"><path d="M340.58,0h11.23c3.85,1.37,7.91,2.31,11.5,4.17,23,11.9,26.85,41.87,7.76,60.3Q332.3,101.9,293.26,139c-2.42,2.3-2.89,4.12-1.81,7.35q30.62,91.86,61,183.79c.84,2.54.68,4.2-1.36,6.19-11.84,11.62-23.51,23.41-35.25,35.14-.77.77-1.61,1.47-2.67,2.42l-98-159.15a4.61,4.61,0,0,0-1.06.42q-40.92,39.24-81.76,78.56a4.71,4.71,0,0,0-1.18,3.56q3.68,23.24,7.66,46.42a5.19,5.19,0,0,1-1.56,5.27c-10.73,10.61-21.37,21.32-32,32-.69.69-1.47,1.29-2.36,2.07-.43-1.15-.79-2.06-1.12-3-8.16-23.23-16.36-46.45-24.43-69.71A6.23,6.23,0,0,0,73,305.94c-11.67-3.93-23.25-8.13-34.89-12.16C25.4,289.38,12.69,285.06,0,280.7V280c.93-.8,1.9-1.55,2.77-2.42,10.51-10.48,21-21,31.54-31.42,1-1,2.8-2,4-1.8q23.42,3.63,46.76,7.7a5.1,5.1,0,0,0,5.21-1.75q38-39.75,76.12-79.39c.74-.77,1.38-1.63,2.25-2.66L9.08,69.92c13.3-13.25,26.16-26.11,39.14-38.85a4.29,4.29,0,0,1,3.59-.49C59.41,32.94,67,35.47,74.5,38q81.08,26.81,162.12,53.7c3.2,1.06,5.19.9,7.67-1.72C267,66.08,289.93,42.49,312.53,18.56,320.52,10.1,328.72,2.39,340.58,0Z"/></g></g></svg>